{
  "asset": {
    "version": "2.0",
    "generator": "bevy_stage tools/gen_test_levels.py"
  },
  "scene": 0,
  "scenes": [
    {
      "name": "Stage",
      "nodes": [
        0,
        1,
        2,
        3,
        4,
        5,
        6
      ],
      "extras": {
        "stage_tag": "stage",
        "display_name": "Connecting Hall"
      }
    }
  ],
  "nodes": [
    {
      "name": "Floor",
      "translation": [
        0,
        -0.5,
        0
      ],
      "scale": [
        4,
        1,
        30
      ],
      "mesh": 0
    },
    {
      "name": "WallL",
      "translation": [
        -2,
        1.5,
        0
      ],
      "scale": [
        0.3,
        4,
        30
      ],
      "mesh": 0
    },
    {
      "name": "WallR",
      "translation": [
        2,
        1.5,
        0
      ],
      "scale": [
        0.3,
        4,
        30
      ],
      "mesh": 0
    },
    {
      "name": "EntryA",
      "translation": [
        0,
        0,
        15
      ],
      "rotation": [
        0.0,
        1.0,
        0.0,
        0.0
      ],
      "extras": {
        "stage_tag": "anchor",
        "id": "entry_a"
      }
    },
    {
      "name": "ExitB",
      "translation": [
        0,
        0,
        -15
      ],
      "extras": {
        "stage_tag": "anchor",
        "id": "exit_b"
      }
    },
    {
      "name": "BackToAtrium",
      "translation": [
        0,
        1.5,
        14
      ],
      "scale": [
        3,
        3,
        0.5
      ],
      "rotation": [
        0.0,
        1.0,
        0.0,
        0.0
      ],
      "extras": {
        "stage_tag": "portal",
        "target": "levels/stage_a.gltf",
        "anchor": "exit_north",
        "preload": 30.0
      }
    },
    {
      "name": "OnToVault",
      "translation": [
        0,
        1.5,
        -14
      ],
      "scale": [
        3,
        3,
        0.5
      ],
      "extras": {
        "stage_tag": "portal",
        "target": "levels/stage_b.gltf",
        "anchor": "entry_south",
        "preload": 35.0
      }
    }
  ],
  "meshes": [
    {
      "name": "Cube",
      "primitives": [
        {
          "attributes": {
            "POSITION": 0,
            "NORMAL": 1
          },
          "indices": 2,
          "material": 0
        }
      ]
    }
  ],
  "materials": [
    {
      "name": "Default",
      "pbrMetallicRoughness": {
        "baseColorFactor": [
          0.8,
          0.8,
          0.8,
          1.0
        ],
        "metallicFactor": 0.0,
        "roughnessFactor": 0.9
      }
    }
  ],
  "accessors": [
    {
      "bufferView": 0,
      "componentType": 5126,
      "count": 24,
      "type": "VEC3",
      "min": [
        -0.5,
        -0.5,
        -0.5
      ],
      "max": [
        0.5,
        0.5,
        0.5
      ]
    },
    {
      "bufferView": 1,
      "componentType": 5126,
      "count": 24,
      "type": "VEC3"
    },
    {
      "bufferView": 2,
      "componentType": 5123,
      "count": 36,
      "type": "SCALAR"
    }
  ],
  "bufferViews": [
    {
      "buffer": 0,
      "byteOffset": 0,
      "byteLength": 288,
      "target": 34962
    },
    {
      "buffer": 0,
      "byteOffset": 288,
      "byteLength": 288,
      "target": 34962
    },
    {
      "buffer": 0,
      "byteOffset": 576,
      "byteLength": 72,
      "target": 34963
    }
  ],
  "buffers": [
    {
      "byteLength": 648,
      "uri": "data:application/octet-stream;base64,"
    }
  ]
}
