{
  "asset": {
    "version": "2.0",
    "generator": "bevy_stage tools/gen_test_levels.py"
  },
  "scene": 0,
  "scenes": [
    {
      "name": "Stage",
      "nodes": [
        0,
        1,
        2
      ],
      "extras": {
        "stage_tag": "stage"
      }
    }
  ],
  "nodes": [
    {
      "name": "EastFloor",
      "translation": [
        0,
        -0.5,
        0
      ],
      "scale": [
        20,
        1,
        20
      ],
      "mesh": 0
    },
    {
      "name": "EastTower",
      "translation": [
        0,
        6,
        0
      ],
      "scale": [
        3,
        12,
        3
      ],
      "mesh": 0
    },
    {
      "name": "SpawnPoint.001",
      "translation": [
        4,
        1,
        4
      ]
    }
  ],
  "meshes": [
    {
      "name": "Cube",
      "primitives": [
        {
          "attributes": {
            "POSITION": 0,
            "NORMAL": 1
          },
          "indices": 2,
          "material": 0
        }
      ]
    }
  ],
  "materials": [
    {
      "name": "Default",
      "pbrMetallicRoughness": {
        "baseColorFactor": [
          0.8,
          0.8,
          0.8,
          1.0
        ],
        "metallicFactor": 0.0,
        "roughnessFactor": 0.9
      }
    }
  ],
  "accessors": [
    {
      "bufferView": 0,
      "componentType": 5126,
      "count": 24,
      "type": "VEC3",
      "min": [
        -0.5,
        -0.5,
        -0.5
      ],
      "max": [
        0.5,
        0.5,
        0.5
      ]
    },
    {
      "bufferView": 1,
      "componentType": 5126,
      "count": 24,
      "type": "VEC3"
    },
    {
      "bufferView": 2,
      "componentType": 5123,
      "count": 36,
      "type": "SCALAR"
    }
  ],
  "bufferViews": [
    {
      "buffer": 0,
      "byteOffset": 0,
      "byteLength": 288,
      "target": 34962
    },
    {
      "buffer": 0,
      "byteOffset": 288,
      "byteLength": 288,
      "target": 34962
    },
    {
      "buffer": 0,
      "byteOffset": 576,
      "byteLength": 72,
      "target": 34963
    }
  ],
  "buffers": [
    {
      "byteLength": 648,
      "uri": "data:application/octet-stream;base64,"
    }
  ]
}
