{
  "asset": {
    "version": "2.0",
    "generator": "bevy_stage tools/gen_test_levels.py"
  },
  "scene": 0,
  "scenes": [
    {
      "name": "Stage",
      "nodes": [
        0,
        1,
        2,
        3,
        4,
        5
      ],
      "extras": {
        "stage_tag": "stage",
        "display_name": "Vault"
      }
    }
  ],
  "nodes": [
    {
      "name": "Ground",
      "translation": [
        0,
        -0.5,
        0
      ],
      "scale": [
        30,
        1,
        30
      ],
      "mesh": 0
    },
    {
      "name": "EntrySouth",
      "translation": [
        0,
        0,
        14
      ],
      "rotation": [
        0.0,
        1.0,
        0.0,
        0.0
      ],
      "extras": {
        "stage_tag": "anchor",
        "id": "entry_south"
      }
    },
    {
      "name": "BackToHall",
      "translation": [
        0,
        1.5,
        13
      ],
      "scale": [
        3,
        3,
        0.5
      ],
      "rotation": [
        0.0,
        1.0,
        0.0,
        0.0
      ],
      "extras": {
        "stage_tag": "portal",
        "target": "levels/hallway.gltf",
        "anchor": "exit_b",
        "preload": 30.0
      }
    },
    {
      "name": "SpawnPoint.001",
      "translation": [
        0,
        1,
        6
      ]
    },
    {
      "name": "Obelisk",
      "translation": [
        0,
        4,
        -4
      ],
      "scale": [
        2,
        8,
        2
      ],
      "mesh": 0
    },
    {
      "name": "VaultDoor",
      "translation": [
        6,
        1.5,
        -4
      ],
      "scale": [
        2,
        3,
        0.4
      ],
      "mesh": 0,
      "extras": {
        "stage_tag": "door",
        "locked": true,
        "persist": true
      }
    }
  ],
  "meshes": [
    {
      "name": "Cube",
      "primitives": [
        {
          "attributes": {
            "POSITION": 0,
            "NORMAL": 1
          },
          "indices": 2,
          "material": 0
        }
      ]
    }
  ],
  "materials": [
    {
      "name": "Default",
      "pbrMetallicRoughness": {
        "baseColorFactor": [
          0.8,
          0.8,
          0.8,
          1.0
        ],
        "metallicFactor": 0.0,
        "roughnessFactor": 0.9
      }
    }
  ],
  "accessors": [
    {
      "bufferView": 0,
      "componentType": 5126,
      "count": 24,
      "type": "VEC3",
      "min": [
        -0.5,
        -0.5,
        -0.5
      ],
      "max": [
        0.5,
        0.5,
        0.5
      ]
    },
    {
      "bufferView": 1,
      "componentType": 5126,
      "count": 24,
      "type": "VEC3"
    },
    {
      "bufferView": 2,
      "componentType": 5123,
      "count": 36,
      "type": "SCALAR"
    }
  ],
  "bufferViews": [
    {
      "buffer": 0,
      "byteOffset": 0,
      "byteLength": 288,
      "target": 34962
    },
    {
      "buffer": 0,
      "byteOffset": 288,
      "byteLength": 288,
      "target": 34962
    },
    {
      "buffer": 0,
      "byteOffset": 576,
      "byteLength": 72,
      "target": 34963
    }
  ],
  "buffers": [
    {
      "byteLength": 648,
      "uri": "data:application/octet-stream;base64,"
    }
  ]
}
